<svg width="1700" height="425" viewBox="0 0 1700 425" fill="none" xmlns="http://www.w3.org/2000/svg">
<rect width="1700" height="425" fill="white"/>
<path d="M277.249 210.935C291.744 217.885 299.873 230.512 299.873 247.837C299.873 274.461 280.481 290.416 247.377 290.416H175V134.781H246.888C278.424 134.781 296.935 150.345 296.935 176.186C297.033 192.043 289.785 203.887 277.249 210.935ZM241.305 162.776H208.103V197.133H241.207C255.702 197.133 263.048 191.456 263.048 180.004C263.048 168.551 255.8 162.776 241.305 162.776ZM241.697 261.639C257.465 261.639 265.496 255.472 265.496 242.845C265.496 230.218 257.367 224.051 241.697 224.051H208.103V261.639H241.697ZM361.967 259.583H441.2V290.319H328.079V134.684H439.143V165.419H361.967V195.763H420.926V225.324H361.967V259.583ZM589.382 134.684V166.692H537.67V290.416H502.902V166.692H451.19V134.684H589.382ZM645.894 259.583H725.127V290.319H612.007V134.684H723.07V165.419H645.894V195.763H704.853V225.324H645.894V259.583ZM817.19 134.684C853.918 134.684 875.758 153.575 875.758 184.604C875.758 216.123 853.918 234.525 817.19 234.525H786.045V290.319H751.668V134.684H817.19ZM813.175 206.53C831 206.53 840.696 199.189 840.696 185.289C840.696 170.998 831 164.049 813.175 164.049H786.143V206.53C786.143 206.53 813.175 206.53 813.175 206.53ZM995.636 290.319L984.765 259.583H917.676L906.805 290.319H870.469L930.311 134.781H973.11L1032.95 290.319H995.636ZM928.646 229.043H973.894L951.269 165.321L928.646 229.043ZM1151.16 134.684H1185.93V290.319H1151.16V226.401H1088.19V290.319H1053.42V134.684H1088.19V194.49H1151.16V134.684Z" fill="#2D2926"/>
<path d="M1242.54 152.106V134.683H1286.52V120H1424.61V134.683H1498.66V152.106H1525V279.648H1498.66V305H1449.59V290.317H1381.32V305H1347.73H1286.62V290.317H1242.54V279.648V255.177V224.638H1232.75V196.643V177.458V152.106H1242.54Z" fill="#B0AB75"/>
<path d="M1460.07 166.105C1470.16 166.105 1477.9 168.65 1483.18 173.74L1484.16 174.719C1488.86 179.711 1491.21 186.661 1491.21 195.471V228.947C1491.21 237.854 1488.86 244.902 1484.16 249.894L1483.18 250.873C1477.9 255.865 1470.16 258.312 1460.07 258.312C1449.98 258.312 1442.25 255.865 1436.86 250.873C1431.57 245.783 1428.93 238.441 1428.93 228.947V195.471C1428.93 186.074 1431.57 178.732 1436.86 173.74L1437.94 172.859C1443.13 168.357 1450.57 166.105 1460.07 166.105ZM1310.12 166.105C1319.33 166.105 1326.48 168.455 1331.38 173.251C1336.37 177.949 1338.82 184.899 1338.82 193.807C1338.82 202.127 1336.67 208.685 1332.36 213.481L1331.48 214.362C1326.58 219.061 1319.53 221.41 1310.22 221.41H1290.44V258.214H1276.53V166.105H1310.12ZM1460.07 177.264C1454.39 177.264 1450.18 178.83 1447.24 181.767C1444.3 184.801 1442.83 189.108 1442.83 194.981V229.436C1442.83 235.211 1444.3 239.616 1447.24 242.65C1450.18 245.685 1454.39 247.153 1460.07 247.153C1465.85 247.153 1470.06 245.587 1472.9 242.65L1473.49 242.063C1476.03 239.127 1477.41 234.918 1477.41 229.436V194.981C1477.41 189.206 1475.94 184.801 1473 181.767C1470.06 178.83 1465.75 177.264 1460.07 177.264ZM1290.34 208.978H1310.12C1314.92 208.978 1318.55 207.706 1321.09 205.063C1323.54 202.518 1324.91 198.799 1324.91 193.807C1324.91 188.814 1323.64 185.095 1321.09 182.648C1318.55 180.103 1315.02 178.732 1310.12 178.732H1290.34V208.978ZM1366.54 208.978H1386.32C1391.12 208.978 1394.74 207.706 1397.29 205.063L1398.17 204.084C1400.13 201.637 1401.11 198.211 1401.11 193.904C1401.11 188.912 1399.84 185.193 1397.29 182.746C1394.74 180.201 1391.22 178.83 1386.32 178.83H1366.54V208.978ZM1414.63 258.41H1400.72V247.153L1375.74 221.605H1366.64V258.41H1352.73V166.105H1386.42C1395.63 166.105 1402.78 168.455 1407.67 173.251L1408.55 174.132C1412.96 178.83 1415.12 185.389 1415.12 193.807C1415.12 201.637 1413.25 207.902 1409.44 212.502C1405.91 216.907 1400.72 219.648 1393.96 220.822L1414.63 241.965L1414.82 242.161V258.41H1414.63Z" fill="#2D2926"/>
</svg>
