<svg width="749" height="308" viewBox="0 0 749 308" fill="none" xmlns="http://www.w3.org/2000/svg">
<path d="M33 37.9998C57.15 51.3998 73.71 77.4298 77.94 104.56C80.7 122.24 82.21 141.62 84.03 159.48C84.14 160.56 84.82 161.1 85.01 162C61.42 162.57 62.93 190.37 85.39 190.93C95.59 175.83 102.72 157.56 105.91 139.41C110.38 113.95 106.57 88.8798 105.98 63.5398C105.75 53.5098 104.85 39.9598 108.23 30.7298C109.4 27.5298 113.11 20.1898 115.49 17.9898C116.68 16.8898 116.34 16.6998 117.48 18.0298C125.82 27.6798 127.55 41.2198 127.03 53.5398C125.45 91.0798 119.78 131.18 134.5 167.01C137.8 175.04 143.15 182.66 146.09 190.92C169.47 191.68 171.65 163.36 148 162.01L155.08 102.59C159.57 75.9198 176.09 52.0398 199.01 38.0198V239.02H153.01C149.45 261.08 134.87 279.36 116.52 291.08C97.6 280.23 83.16 260.74 80.01 239.02H33.01V38.0198L33 37.9998ZM47 66.9998V169L54.9 168.9C56.51 164.57 59.02 159.08 62.49 156C63.93 154.72 67.82 153.08 68.53 152.04C70.49 149.18 67.48 136.51 67.05 132.45C64.54 108.75 64.58 91.4498 50.42 71.0798L47 66.9998ZM186 67.9998C183.57 67.3998 184.38 68.5598 183.79 69.2998C176.76 78.2198 172.34 88.8298 169.22 99.7198L162.95 151.43C170.21 154.71 174.94 161.3 177.96 168.54L186 169V67.9998ZM133 195C133.17 193.84 132.98 193.06 132.49 192.01C130.19 187.01 125.8 182.07 123.8 176.7L116 157.01C114.45 162.41 112.7 167.84 110.49 173C107.92 179 102.28 186.64 100.44 191.95C100.08 193 99.83 193.88 99.99 195C106.53 195.98 112.22 200.06 116.49 204.99C120.21 199.62 126.34 195.62 132.99 195H133ZM47 184.5V225H78C77.75 218.26 79.29 211.56 80.55 204.99C79.69 203.85 73.46 203.04 71.29 202.21C63.37 199.2 56.38 191.46 54.94 183.06C52.91 183 47.57 182.34 46.99 184.51L47 184.5ZM155.5 225H184.5C184.61 225 186 223.61 186 223.5V184.5C186 182.76 179.41 182.4 177.94 183.44C177.28 183.91 174.87 190.99 173.46 192.96C168.9 199.34 159.84 204.12 152 204C151.48 204.47 153.77 211.97 153.93 213.57C154.2 216.22 153.06 224.36 155.5 225ZM109 225C110.14 217.07 102.33 208.25 94.51 207.97C92.29 207.89 93.29 208.05 93.02 209.5C92.07 214.62 90.72 219.77 91 225H109ZM141 225C140.69 216.91 142.82 202.16 131.04 210.54C127.76 212.88 123.69 218.69 123.13 222.67C122.99 223.69 124.1 224.99 124.5 224.99H141V225ZM109 239H93C95.19 249.49 100.78 261.07 109 268V239ZM140 239H123V268C124.57 268.32 125.08 267.52 126.01 266.51C132.71 259.26 137.35 248.4 140 239Z" fill="#2D2926"/>
<path d="M384 113L397.5 149L410 113H427V164H416V130L403.252 164.05C401.064 164.05 394.273 164.05 391.59 164.05L378 129V164H367V113H384Z" fill="#2D2926"/>
<path d="M379 37.9994V57.9994L386.9 57.8994L398.089 38.0094C400.345 38.0094 407.67 38.0094 411 38.0094C410.091 39.4123 400.2 54.505 399.01 56.5194C398.089 58.0794 398.089 58.0094 400.49 58.0094C402.65 58.0994 404.85 57.9394 407 58.0094V78.0094L410.91 79.0994L411 89.0094C402.84 89.2094 396.29 89.9794 395.04 80.4594C394.53 76.5394 395.31 72.0094 394.99 68.0094H378.99V89.0094H366.99V38.0094H378.99L379 37.9994Z" fill="#2D2926"/>
<path d="M471 59.0018C483.19 47.6118 505.28 55.1318 502.94 73.4518C500.42 93.2018 470.08 96.3118 463.23 77.2518C460.77 70.3918 461.34 56.0118 465.12 49.6218C470.53 40.4818 482.26 39.7318 491.42 37.0718L492.02 34.0218C492.32 33.5418 502.79 34.8618 502.89 36.4718C501.83 38.0618 501.99 40.0318 501.22 41.7218C496.73 51.5018 471.54 44.7718 470.99 58.9918L471 59.0018ZM480.72 61.2018C470.14 62.8818 470.14 79.1218 480.72 80.7918C495.3 83.1018 495.15 58.9118 480.72 61.2018Z" fill="#2D2926"/>
<path d="M619 123.001H629V128.001C635.7 123.081 644.57 120.291 651.95 125.541C662.78 133.241 662.34 154.501 651.53 162.031C646.14 165.781 634.86 164.671 630 160.001V177.001H619V123.001ZM635.66 132.161C634.48 132.511 631.32 136.021 630.77 137.261C626.48 146.911 633.3 160.631 644.38 153.871C652.43 148.961 649.85 127.951 635.66 132.151V132.161Z" fill="#2D2926"/>
<path d="M386.07 214.949L388.96 214.969L398.09 187.079L410 186.999C410.18 188.129 409.92 188.999 409.55 190.049C405.8 200.769 398.77 222.999 393.2 231.699C385.31 244.029 364.92 240.959 364.92 225.499C364.92 222.949 366.65 216.659 368.97 215.479C370.9 214.499 374.76 216.029 373.98 213.509L360.99 186.999C364.15 187.509 371.46 185.839 373.51 187.979L386.06 214.949H386.07ZM386 222.999C382.44 223.459 374.17 221.109 375.15 226.319C376.54 233.709 385.87 229.099 386 222.999Z" fill="#2D2926"/>
<path d="M472 235.001V252.001H462V198.001L471.06 198.441L472.01 203.001C482.02 192.701 499.32 197.271 501.79 211.711C504.39 226.921 496.37 244.681 478.46 238.041C476.16 237.191 474.57 234.951 472 235.001ZM480.74 206.171C468.8 207.501 468.4 232.111 483.47 229.981C490.76 228.951 491.86 220.581 490.97 214.531C490.26 209.721 485.54 205.641 480.73 206.171H480.74Z" fill="#2D2926"/>
<path d="M289 145H276V239H289V145Z" fill="#2D2926"/>
<path d="M289 38H276V131H289V38Z" fill="#2D2926"/>
<path d="M427 184.998V212.998L432.86 212.858L441.96 198.458L453 197.998L444 212.998H450L450.1 227.398L454.05 229.558L454 238.998C441.26 239.918 438.67 235.108 440 222.988H427V238.988C424.98 238.818 416 239.808 416 237.488V184.988H427V184.998Z" fill="#2D2926"/>
<path d="M637 198V222L652.96 198.46L664 198V239C661.98 238.83 653 239.82 653 237.5V215L637.04 238.54L626 239V198H637Z" fill="#2D2926"/>
<path d="M712.5 123.001C713.23 123.091 717.11 124.141 718.04 124.461C724.03 126.541 726.21 131.071 724.81 137.311C724.24 139.871 720.64 142.091 721 143.491C727.65 146.681 728.04 157.431 721.96 161.461C721.05 162.061 716.08 164.001 715.5 164.001H691V123.001C697.83 123.591 705.83 122.201 712.5 123.001ZM701 139.001C704.63 138.461 711.7 140.381 714.05 137.551C718.42 132.291 706.99 129.861 702.62 131.121L701.12 132.621L701 139.011V139.001ZM701 147.001L701.12 154.391C702.2 158.141 720.11 156.331 714.48 149.041C711.57 145.281 705.4 147.611 701.01 147.001H701Z" fill="#2D2926"/>
<path d="M618.999 71.9986H589.999C591.199 83.1886 604.189 82.6786 611.499 76.9386L617.989 82.4986C608.959 93.1786 587.259 92.8086 581.129 79.3686C572.389 60.1986 588.73 41.5986 608.71 49.7886C616.89 53.1386 621.059 63.8486 618.999 71.9986ZM607.999 64.9986C607.959 53.8386 591.589 54.4686 589.999 64.9986H607.999Z" fill="#2D2926"/>
<path d="M455.929 80.0695L455.999 89.0095C451.109 88.8095 444.269 90.6695 443.989 84.0095C436.999 92.0495 418.049 92.4995 416.189 80.2795C414.759 70.8995 421.829 67.0895 429.739 65.2595C432.289 64.6695 442.809 64.5294 441.939 60.6094C441.009 56.4094 433.329 56.5095 429.949 57.4695C427.559 58.1495 424.449 59.9355 422.639 60.9295C421.612 60.0095 418.134 55.5332 416.999 54.0194C419.432 52.1148 421.739 51.0694 424.449 49.9594C433.189 46.3794 450.269 46.8595 451.969 58.5295C452.769 63.9795 450.759 73.9095 452.099 78.3995C452.589 80.0295 454.519 79.9295 455.929 80.0695ZM441.999 70.9995C437.739 70.8995 425.209 71.7295 427.119 78.3495C429.099 85.1895 443.999 79.0195 441.999 70.9995Z" fill="#2D2926"/>
<path d="M533 49H544C544.34 51.46 542.92 64 545.5 64H560V49H571V89H560V73H545.5C545.39 73 544 74.39 544 74.5V89H533V49Z" fill="#2D2926"/>
<path d="M474 123V138H490V123H500V164H490V149.5C490 149.39 488.61 148 488.5 148H474V164H463V123H474Z" fill="#2D2926"/>
<path d="M588 198V213H604V198H615V239C612.98 238.83 604 239.82 604 237.5V223H588V239H578V198H588Z" fill="#2D2926"/>
<path d="M561.07 149.021L570.98 152.021C569.41 165.941 547.4 167.351 538.48 160.021C535.34 157.441 532.37 151.571 531.97 147.531C530.22 130.121 541.04 120.271 558.29 123.221C562.68 123.971 569.52 128.281 570.87 132.651C572.14 136.781 564.26 136.371 561.6 137.941C560.24 137.641 559.3 132.721 554.48 132.031C544.73 130.641 541.5 139.861 543.46 148.051C545.72 157.541 557.96 158.491 561.08 149.021H561.07Z" fill="#2D2926"/>
<path d="M612 123V133H598V164H587V133H573C573.11 131.1 572.27 123 574.5 123H612Z" fill="#2D2926"/>
<path d="M660 49V58C657.63 58.31 646 56.97 646 59.5V89H635V58H621V49H660Z" fill="#2D2926"/>
<path d="M523 123H512V164H523V123Z" fill="#2D2926"/>
<path d="M566 198H555V239H566V198Z" fill="#2D2926"/>
<path d="M522 49H511V89H522V49Z" fill="#2D2926"/>
<path d="M679 123H669V164H679V123Z" fill="#2D2926"/>
<path d="M451 123H441V164H451V123Z" fill="#2D2926"/>
<path d="M522 33.9983V44.0083C514.23 43.5683 508.53 46.9683 509.98 36.4783C510.58 32.1083 518.54 34.6183 522 33.9983Z" fill="#2D2926"/>
<path d="M680.01 109H668V118.01H680.01V109Z" fill="#2D2926"/>
<path d="M452.01 109H440V118.01H452.01V109Z" fill="#2D2926"/>
<path d="M523.01 109H512V118.01H523.01V109Z" fill="#2D2926"/>
<path d="M558.01 184H547V193.01H558.01V184Z" fill="#2D2926"/>
<path d="M574.01 184H563V193.01H574.01V184Z" fill="#2D2926"/>
<path d="M546.326 230.026L546.396 238.966C541.506 238.766 534.666 240.626 534.386 233.966C527.396 242.006 508.446 242.456 506.586 230.236C505.156 220.856 512.226 217.046 520.136 215.216C522.686 214.626 533.206 214.486 532.336 210.566C531.406 206.366 523.726 206.466 520.346 207.426C517.956 208.106 514.846 209.892 513.036 210.886C512.008 209.966 508.531 205.49 507.396 203.976C509.828 202.071 512.136 201.026 514.846 199.916C523.586 196.336 540.666 196.816 542.366 208.486C543.166 213.936 541.156 223.866 542.496 228.356C542.986 229.986 544.916 229.886 546.326 230.026ZM532.396 220.956C528.136 220.856 515.606 221.686 517.516 228.306C519.496 235.146 534.396 228.976 532.396 220.956Z" fill="#2D2926"/>
</svg>
