<svg width="210" height="26" viewBox="0 0 210 26" fill="none" xmlns="http://www.w3.org/2000/svg">
<path d="M200.312 10.5507H201.424C203.019 10.5507 203.721 9.69538 203.721 7.80235C203.721 5.90932 203.055 5.05404 201.424 5.05404H200.312V10.5507ZM200.312 20.9489H201.83C203.425 20.9489 204.131 19.947 204.131 17.9404C204.131 15.7872 203.425 14.9678 201.83 14.9678H200.312V20.9459V20.9489ZM194.6 26V0.00296402H201.456C207.091 0.00296402 209.428 2.04552 209.428 6.65099C209.428 9.69538 208.427 11.5914 206.389 12.6291C208.908 13.5951 209.984 15.5988 209.984 18.8674C209.984 23.8438 207.426 25.997 201.902 25.997H194.597L194.6 26Z" fill="#2D2926"/>
<path d="M193.162 0.00296402H187.303V26H193.162V0.00296402Z" fill="#2D2926"/>
<path d="M158.749 17.6054H162.308L160.566 7.16835L158.749 17.6054ZM157.157 0.00296402H163.903L169.428 26H163.718L163.088 22.2109H158.008L157.378 26H151.633L157.157 0.00296402Z" fill="#2D2926"/>
<path d="M144.464 12.3331H145.836C147.392 12.3331 148.097 11.2176 148.097 8.80422C148.097 6.39083 147.392 5.31421 145.836 5.31421H144.464V12.3331ZM145.836 17.6054H144.464V26H138.605V0.00296402H145.836C151.581 0.00296402 153.953 2.60178 153.953 8.80422C153.953 15.0067 151.396 17.6054 145.836 17.6054Z" fill="#2D2926"/>
<path d="M95.6829 26V0.00296402H107.768V5.31421H101.539V10.1799H107.027V15.4522H101.539V20.6887H107.768V26H95.6829Z" fill="#2D2926"/>
<path d="M113.586 26V5.31421H108.991V0.00296402H124.079V5.31421H119.445V26H113.586Z" fill="#2D2926"/>
<path d="M85.1425 10.5507H86.254C87.8494 10.5507 88.5516 9.69538 88.5516 7.80235C88.5516 5.90932 87.8853 5.05404 86.254 5.05404H85.1425V10.5507ZM85.1425 20.9489H86.6633C88.2588 20.9489 88.9609 19.947 88.9609 17.9404C88.9609 15.7872 88.2558 14.9678 86.6633 14.9678H85.1425V20.9459V20.9489ZM79.2835 26V0.00296402H86.1435C91.7784 0.00296402 94.1148 2.04552 94.1148 6.65099C94.1148 9.69538 93.1139 11.5914 91.0763 12.6291C93.598 13.5951 94.6735 15.5988 94.6735 18.8674C94.6735 23.8438 92.116 25.997 86.5916 25.997H79.2865L79.2835 26Z" fill="#2D2926"/>
<path d="M60.8103 0.00296402H54.9512V26H60.8103V0.00296402Z" fill="#2D2926"/>
<path d="M47.7323 26L47.807 9.36046L44.8401 22.5459H41.431L38.4642 9.43522L38.5389 26H32.7904V0.00296402H40.4272L43.134 12.7428L45.841 0.00296402H53.5166V26H47.7323Z" fill="#2D2926"/>
<path d="M125.298 26V0.00296402H137.384V5.31421H131.157V10.1799H136.642V15.4522H131.157V20.6887H137.384V26H125.298Z" fill="#2D2926"/>
<path d="M170.261 26V0.00296402H176.12V10.1799H180.013V0.00296402H185.869V26H180.013V15.4522H176.12V26H170.261Z" fill="#2D2926"/>
<path d="M62.241 26V0.00296402H68.1V10.1799H71.993V0.00296402H77.8491V26H71.993V15.4522H68.1V26H62.241Z" fill="#2D2926"/>
<path d="M15.6973 13.5473V10.0603C15.3926 10.4161 15.1714 10.8587 15.1206 11.3522L14.9324 12.9342C15.1714 13.0718 15.3567 13.2901 15.4254 13.5473H15.6973ZM15.6973 15.4343V14.0228H15.4254C15.3417 14.3457 15.0848 14.5999 14.7621 14.7016L14.541 14.7524C14.5918 14.9737 14.6247 15.195 14.6247 15.4313H15.6943L15.6973 15.4343ZM14.1018 15.9128H13.576V16.9176C13.8299 16.6276 14.0181 16.2896 14.1018 15.9128ZM14.1675 15.4343C14.1675 15.2309 14.1347 15.0426 14.0839 14.8571C13.794 14.89 13.576 15.1472 13.576 15.4343H14.1705H14.1675ZM13.8448 14.4325C13.6417 14.0586 13.4534 13.6669 13.3369 13.2572C13.2174 13.6669 13.0322 14.0557 12.829 14.4325C13.0322 14.4833 13.2025 14.6179 13.3369 14.7734C13.4714 14.6209 13.6417 14.4833 13.8448 14.4325ZM13.0979 15.9128H12.5721C12.6558 16.2866 12.8439 16.6276 13.0979 16.9176V15.9128ZM13.0979 15.4343C13.0979 15.1442 12.8768 14.89 12.587 14.8571C12.5362 15.0426 12.5033 15.2309 12.5033 15.4343H13.0979ZM12.0463 15.4343C12.0463 15.1951 12.0791 14.9737 12.1298 14.7554L11.9088 14.7046C11.5861 14.6029 11.3321 14.3487 11.2455 14.0258H10.9736V15.4373H12.0433L12.0463 15.4343ZM11.2485 13.5473C11.3172 13.2931 11.5025 13.0718 11.7415 12.9342L11.5532 11.3522C11.4845 10.8587 11.2814 10.4161 10.9766 10.0603V13.5473H11.2485ZM13.0471 17.4948C12.5541 17.121 12.1986 16.5587 12.0791 15.9128H10.5015V9.07635C11.3501 9.50101 11.9626 10.4371 12.0283 11.406L12.2673 13.329L12.1478 13.311C11.8938 13.311 11.6728 13.5502 11.6728 13.7865C11.6728 14.0078 11.843 14.1932 12.0641 14.247L12.3539 14.3158C12.829 13.4157 13.1009 12.5305 13.1009 11.6632C13.1009 10.8797 12.9993 10.0991 12.9814 9.29765C12.9814 8.94177 13.1158 8.61879 13.3369 8.3616C13.558 8.6158 13.6925 8.93878 13.6925 9.29765C13.6925 10.0961 13.573 10.8797 13.573 11.6632C13.573 12.5305 13.8449 13.4157 14.3199 14.3158L14.6097 14.247C14.8308 14.1962 15.0011 14.0078 15.0011 13.7865C15.0011 13.5472 14.78 13.311 14.526 13.311L14.4066 13.329L14.6456 11.406C14.7651 10.4371 15.3238 9.50101 16.1723 9.07635V15.9128H14.5948C14.4753 16.5587 14.1376 17.1389 13.6267 17.4948C13.5072 17.5785 13.4056 17.6832 13.3369 17.8178C13.2682 17.6832 13.1666 17.5785 13.0471 17.4948Z" fill="#2D2926"/>
<path fill-rule="evenodd" clip-rule="evenodd" d="M9.78143 17.7789C9.55436 17.6085 9.33627 17.4201 9.1331 17.2167C8.92993 17.0134 8.74466 16.798 8.57435 16.5737C8.13515 17.0163 7.41211 17.7401 7.08047 18.075C6.74882 17.7251 6.42016 17.3722 6.10346 17.0044C5.96901 17.1389 5.8346 17.2735 5.70015 17.4081C6.00789 17.7999 6.33057 18.1767 6.66819 18.5415C6.58752 18.5834 6.53672 18.6642 6.51581 18.7868C6.47996 18.9812 6.54865 19.1038 6.71597 19.1576L6.33651 19.0888C6.11841 19.0499 5.98992 19.1396 5.95108 19.3579C5.91523 19.5613 5.99291 19.6869 6.18114 19.7348L5.76887 19.66C5.55076 19.6211 5.42227 19.7108 5.38343 19.9292C5.34758 20.1355 5.42527 20.2611 5.61948 20.309L5.19816 20.2312C4.98005 20.1923 4.85156 20.282 4.81272 20.5004C4.77687 20.6977 4.84864 20.8233 5.02491 20.8742L4.6335 20.8024C4.41539 20.7635 4.2869 20.8532 4.24806 21.0715C4.20922 21.2809 4.2929 21.4095 4.49308 21.4543L4.06578 21.3766C3.94029 21.3527 3.84469 21.3766 3.77896 21.4394C3.72219 21.3557 3.6684 21.2809 3.61761 21.2211C3.47719 21.0386 3.19935 21.0327 3.04996 21.2091C2.69143 21.6218 2.84379 22.3964 3.4025 22.9855H3.40549L3.40848 22.9915C4.00006 23.5507 4.77089 23.7003 5.1832 23.3384C5.35948 23.1889 5.35357 22.9107 5.17131 22.7702C5.09662 22.7074 5.00395 22.6446 4.89938 22.5698C4.89938 22.5608 4.90536 22.5519 4.90835 22.5399C4.94719 22.3306 4.86352 22.205 4.66632 22.1601L5.09363 22.2379C5.31173 22.2767 5.44015 22.187 5.47899 21.9687C5.51783 21.7564 5.43422 21.6308 5.23105 21.5859L5.66127 21.6637C5.87938 21.7026 6.00787 21.6128 6.04671 21.3945C6.08256 21.1972 6.01087 21.0716 5.83459 21.0207L6.22593 21.0925C6.44404 21.1314 6.57253 21.0416 6.61137 20.8233C6.65021 20.617 6.56953 20.4914 6.37532 20.4435L6.79963 20.5213C7.01774 20.5602 7.14623 20.4704 7.18507 20.2521C7.22092 20.0488 7.14623 19.9261 6.96099 19.8753L7.36728 19.9501C7.58539 19.9889 7.71387 19.8993 7.75272 19.6809C7.7557 19.663 7.75571 19.648 7.7587 19.6301C8.14412 19.986 8.54748 20.3299 8.96577 20.6588C9.10022 20.5243 9.23463 20.3897 9.36908 20.2551C9.00158 19.9381 8.64608 19.6121 8.29352 19.2772C8.62516 18.9422 9.3482 18.2185 9.78741 17.7789H9.78143Z" fill="#2D2926"/>
<path fill-rule="evenodd" clip-rule="evenodd" d="M9.13039 8.78926C9.33356 8.5859 9.54866 8.39749 9.77573 8.22703C7.42136 5.87047 4.82497 3.27464 4.23339 2.6855C4.00034 2.44925 3.361 2.51207 2.85607 2.51506C2.85607 3.02345 2.79627 3.66343 3.0323 3.8967C3.65674 4.52173 6.24417 7.10857 8.57164 9.43523C8.74195 9.20795 8.92722 8.99262 9.13039 8.78926Z" fill="#2D2926"/>
<path d="M13.3371 6.56728C9.79062 6.56728 6.91339 9.4472 6.91339 13.003C6.91339 16.5588 9.78763 19.4387 13.3371 19.4387C16.8866 19.4387 19.7608 16.5588 19.7608 13.003C19.7608 9.4472 16.8866 6.56728 13.3371 6.56728ZM13.3371 7.04281C14.1408 7.04281 14.9206 7.20129 15.6526 7.51231C16.3607 7.81137 16.9972 8.24201 17.5439 8.78929C18.0907 9.33656 18.5179 9.97354 18.8197 10.6823C19.1304 11.418 19.2858 12.1955 19.2858 13C19.2858 13.8045 19.1274 14.585 18.8197 15.3177C18.5209 16.0264 18.0907 16.6635 17.5439 17.2107C16.9972 17.758 16.3607 18.1887 15.6526 18.4877C14.9206 18.7987 14.1408 18.9572 13.3371 18.9572C12.5334 18.9572 11.7536 18.7987 11.0216 18.4877C10.3135 18.1887 9.67713 17.758 9.13037 17.2107C8.58361 16.6635 8.15635 16.0264 7.85458 15.3177C7.54386 14.582 7.38847 13.8045 7.38847 13C7.38847 12.1955 7.54684 11.415 7.85458 10.6823C8.15336 9.97354 8.58361 9.33656 9.13037 8.78929C9.67713 8.24201 10.3135 7.81137 11.0216 7.51231C11.7536 7.20129 12.5334 7.04281 13.3371 7.04281Z" fill="#2D2926"/>
<path fill-rule="evenodd" clip-rule="evenodd" d="M23.8154 2.50009C23.3105 2.50009 22.6711 2.44027 22.438 2.67951C21.8225 3.29856 19.2173 5.91234 16.9017 8.23601C17.1288 8.40647 17.3409 8.59189 17.5441 8.79525C17.7472 8.99861 17.9354 9.2169 18.1057 9.44717C20.4482 7.09957 23.0655 4.47088 23.6451 3.88772C23.8811 3.65445 23.8184 3.01447 23.8154 2.50608V2.50009Z" fill="#2D2926"/>
<path d="M6.97321 0.00299158V4.66527H10.4331V7.79938C10.5884 7.71266 10.7468 7.63193 10.9082 7.56016V4.18679H7.44829V0.475488H19.2261V4.18679H15.7663V7.55717C15.9276 7.62894 16.0859 7.7097 16.2413 7.79643V4.66228H19.7012V-1.90735e-06H6.97321V0.00299158Z" fill="#2D2926"/>
<path fill-rule="evenodd" clip-rule="evenodd" d="M23.63 21.1643C23.4806 20.9878 23.2028 20.9938 23.0623 21.1763C22.9996 21.251 22.9369 21.3437 22.8622 21.4484C22.8532 21.4484 22.8442 21.4424 22.8323 21.4394C22.6231 21.4006 22.4976 21.4843 22.4528 21.6816L22.5305 21.254C22.5693 21.0357 22.4797 20.9071 22.2616 20.8652C22.0495 20.8263 21.924 20.9101 21.8792 21.1164L21.9569 20.6858C21.9957 20.4675 21.906 20.3389 21.6879 20.3C21.4907 20.2641 21.3652 20.3359 21.3145 20.5123L21.3862 20.1206C21.4251 19.9023 21.3354 19.7737 21.1173 19.7348C20.9111 19.6959 20.7856 19.7767 20.7378 19.9711L20.8155 19.5464C20.8544 19.3281 20.7648 19.1995 20.5466 19.1606C20.3435 19.1247 20.221 19.1995 20.1702 19.3849L20.2449 18.9752C20.2837 18.7569 20.194 18.6283 19.9759 18.5894C19.958 18.5864 19.9431 18.5864 19.9252 18.5834C20.2807 18.1976 20.6243 17.7939 20.9529 17.3752C20.8185 17.2406 20.6841 17.1061 20.5496 16.9715C20.2329 17.3393 19.9073 17.6952 19.5756 18.0481C19.2589 17.7311 18.5449 17.0164 18.0967 16.5708C17.9264 16.7951 17.7411 17.0104 17.5409 17.2138C17.3378 17.4201 17.1197 17.6085 16.8896 17.7789C17.3378 18.2275 18.0519 18.9423 18.3715 19.2593C18.022 19.5912 17.6694 19.9202 17.3019 20.2372C17.4363 20.3718 17.5708 20.5064 17.7053 20.6409C18.0967 20.3329 18.4731 20.0099 18.8377 19.672C18.8795 19.7527 18.9601 19.8036 19.0826 19.8245C19.2768 19.8604 19.3993 19.7916 19.4531 19.6241L19.3844 20.0039C19.3455 20.2223 19.4352 20.3509 19.6533 20.3897C19.8565 20.4256 19.982 20.3479 20.0298 20.1595L19.9551 20.5722C19.9162 20.7905 20.0058 20.919 20.2239 20.9609C20.4301 20.9968 20.5556 20.9191 20.6034 20.7247L20.5257 21.1463C20.4869 21.3646 20.5765 21.4932 20.7946 21.5351C20.9918 21.571 21.1173 21.4992 21.1681 21.3228L21.0964 21.7145C21.0575 21.9328 21.1472 22.0615 21.3653 22.1033C21.5744 22.1422 21.6999 22.0584 21.7448 21.8581L21.6671 22.2857C21.6432 22.4113 21.6671 22.507 21.7298 22.5758C21.6461 22.6326 21.5744 22.6865 21.5117 22.7373C21.3294 22.8779 21.3235 23.156 21.4997 23.3055C21.912 23.6674 22.6859 23.5119 23.2745 22.9496H23.2774L23.2804 22.9437C23.8391 22.3515 23.9886 21.577 23.6271 21.1643H23.63Z" fill="#2D2926"/>
<path d="M21.6583 6.62714V10.0932H18.5271C18.6137 10.2487 18.6944 10.4072 18.7661 10.5687H22.1333V7.10263H25.8381V18.9004H22.1333V15.4343H18.7661C18.6944 15.5958 18.6137 15.7543 18.5271 15.9098H21.6583V19.3759H26.3132V6.62415H21.6583V6.62714Z" fill="#2D2926"/>
<path d="M7.90552 15.4343H4.53829V18.9003H0.833481V7.10254H4.53829V10.5686H7.90552C7.97723 10.4071 8.05791 10.2486 8.14456 10.0931H5.01337V6.62705H0.358398V19.3788H5.01337V15.9127H8.14456C8.05791 15.7572 7.97723 15.5987 7.90552 15.4372V15.4343Z" fill="#2D2926"/>
<path d="M16.2413 21.3376V18.2035C16.0859 18.2902 15.9276 18.371 15.7663 18.4427V21.8161H19.2261V25.5274H7.44829V21.8161H10.9082V18.4427C10.7468 18.371 10.5884 18.2902 10.4331 18.2035V21.3376H6.97321V25.9999H19.7012V21.3376H16.2413Z" fill="#2D2926"/>
</svg>
