<svg width="836" height="116" viewBox="0 0 836 116" fill="none" xmlns="http://www.w3.org/2000/svg">
<path d="M63.3166 56.7204C72.2924 61.0402 77.3262 68.8886 77.3262 79.6571C77.3262 96.2055 65.318 106.122 44.8187 106.122H0V9.38622H44.5159C64.0442 9.38622 75.5069 19.0602 75.5069 35.1218C75.5676 44.9779 71.0793 52.3396 63.3166 56.7204ZM41.0586 26.7867H20.4987V48.1416H40.998C49.9738 48.1416 54.5228 44.613 54.5228 37.4949C54.5228 30.3762 50.0345 26.7867 41.0586 26.7867ZM41.3014 88.2359C51.0656 88.2359 56.0387 84.4027 56.0387 76.5543C56.0387 68.7059 51.0049 64.8727 41.3014 64.8727H20.4987V88.2359H41.3014ZM115.777 86.9579H164.841V106.062H94.7925V9.32593H163.568V28.4295H115.777V47.2901H152.287V65.664H115.777V86.9579ZM256.602 9.32593V29.2208H224.579V106.122H203.05V29.2208H171.028V9.32593H256.602ZM291.596 86.9579H340.66V106.062H270.612V9.32593H339.386V28.4295H291.596V47.2901H328.106V65.664H291.596V86.9579ZM397.669 9.32593C420.413 9.32593 433.937 21.0678 433.937 40.3541C433.937 59.945 420.413 71.3829 397.669 71.3829H378.383V106.062H357.095V9.32593H397.669ZM395.183 53.9824C406.221 53.9824 412.225 49.4195 412.225 40.7799C412.225 31.8972 406.221 27.578 395.183 27.578H378.444V53.9824H395.183ZM508.17 106.062L501.438 86.9579H459.894L453.162 106.062H430.662L467.718 9.38622H494.221L531.276 106.062H508.17ZM466.687 67.9755H494.706L480.696 28.3686L466.687 67.9755ZM604.476 9.32593H626.007V106.062H604.476V66.3334H565.483V106.062H543.952V9.32593H565.483V46.4988H604.476V9.32593Z" fill="white"/>
<path d="M773.807 9.32361H819.661V20.1537H835.972V99.4281H819.661V115.186H789.275V106.06H747V115.186H688.358V106.06H661.062V65.2367H655V20.1537H661.062V9.32361H688.296V0.197632H773.807V9.32361ZM729.296 28.8549V86.2279H737.91V63.351H743.545L759.014 79.2308V86.2279H767.745V76.1283L767.627 76.0062L754.827 62.8646C759.013 62.1349 762.227 60.4307 764.413 57.6927C766.772 54.8336 767.931 50.9394 767.931 46.0726C767.931 40.8406 766.593 36.7641 763.862 33.8441L763.317 33.2963C760.289 30.3153 755.861 28.8549 750.158 28.8549H729.296ZM795.766 28.8549C789.883 28.8549 785.275 30.2548 782.062 33.0531L781.393 33.6C778.117 36.7027 776.483 41.2663 776.482 47.1068V67.9144C776.482 73.8155 778.117 78.3796 781.393 81.5433C784.73 84.6461 789.518 86.1664 795.766 86.1664C802.014 86.1663 806.807 84.646 810.076 81.5433L810.683 80.934C813.593 77.8311 815.049 73.4506 815.049 67.9144V47.1068C815.049 41.6311 813.593 37.3111 810.683 34.2084L810.076 33.6C806.807 30.4363 802.014 28.8549 795.766 28.8549ZM682.11 28.8549V86.1058H690.724V63.2299H702.973C708.738 63.2298 713.103 61.7697 716.138 58.849L716.683 58.3011C719.351 55.3202 720.683 51.2438 720.683 46.0726C720.683 40.536 719.165 36.2163 716.075 33.2963C713.041 30.3154 708.613 28.8549 702.91 28.8549H682.11ZM795.766 35.7904C799.283 35.7904 801.952 36.7638 803.772 38.5892C805.593 40.475 806.503 43.2136 806.503 46.8031V68.2181C806.503 71.6255 805.648 74.2419 804.075 76.0668L803.71 76.432C801.951 78.2573 799.345 79.2308 795.766 79.2308C792.248 79.2308 789.641 78.3184 787.82 76.432C786 74.5462 785.09 71.8076 785.09 68.2181V46.8031C785.09 43.1527 786 40.475 787.82 38.5892C789.641 36.7637 792.248 35.7904 795.766 35.7904ZM702.91 36.7035C705.944 36.7035 708.13 37.5554 709.703 39.1371C711.282 40.658 712.069 42.9694 712.069 46.0726C712.069 49.1754 711.22 51.4878 709.703 53.0697C708.13 54.7122 705.882 55.5023 702.91 55.5023H690.662V36.7035H702.91ZM750.097 36.764C753.131 36.7641 755.311 37.6159 756.89 39.1976C758.469 40.7186 759.255 43.0304 759.255 46.1332C759.255 48.8101 758.648 50.9394 757.435 52.4603L756.89 53.0697C755.311 54.7123 753.069 55.5023 750.097 55.5023H737.848V36.764H750.097Z" fill="white"/>
</svg>
